<?xml version="1.0" encoding="UTF-8"?>
<svg xmlns="http://www.w3.org/2000/svg" xmlns:xlink="http://www.w3.org/1999/xlink" id="Layer_1" viewBox="0 0 269.14 41.37"><defs><linearGradient id="linear-gradient" x1="14.99" y1="25.59" x2="42.38" y2="-1.8" gradientTransform="matrix(1, 0, 0, 1, 0, 0)" gradientUnits="userSpaceOnUse"><stop offset="0" stop-color="#e47637"/><stop offset=".88" stop-color="#ffcc52"/></linearGradient><linearGradient id="linear-gradient-2" x1="87.72" y1="26.66" x2="112.87" y2="1.51" gradientTransform="matrix(1, 0, 0, 1, 0, 0)" gradientUnits="userSpaceOnUse"><stop offset="0" stop-color="#008597"/><stop offset="1" stop-color="#48c0b9"/></linearGradient><linearGradient id="linear-gradient-3" x1="233.69" y1="10.21" x2="195.89" y2="32.03" gradientTransform="matrix(1, 0, 0, 1, 0, 0)" gradientUnits="userSpaceOnUse"><stop offset=".2" stop-color="#008597"/><stop offset="1" stop-color="#48c0b9"/></linearGradient><linearGradient id="linear-gradient-4" x1="45.84" y1="29.07" x2="82.09" y2="29.07" gradientTransform="matrix(1, 0, 0, 1, 0, 0)" gradientUnits="userSpaceOnUse"><stop offset=".18" stop-color="#48c0b9"/><stop offset=".81" stop-color="#008597"/></linearGradient><linearGradient id="linear-gradient-5" x1="43.22" y1="20.68" x2="68.03" y2="20.68" gradientTransform="matrix(1, 0, 0, 1, 0, 0)" gradientUnits="userSpaceOnUse"><stop offset=".22" stop-color="#48c0b9"/><stop offset="1" stop-color="#008597"/></linearGradient><linearGradient id="linear-gradient-6" x1="165.05" y1="35.98" x2="194.21" y2="35.98" gradientTransform="matrix(1, 0, 0, 1, 0, 0)" gradientUnits="userSpaceOnUse"><stop offset=".03" stop-color="#008597"/><stop offset="1" stop-color="#48c0b9"/></linearGradient><linearGradient id="linear-gradient-7" x1="123.91" y1="11.68" x2="160.35" y2="11.68" xlink:href="#linear-gradient-2"/><linearGradient id="linear-gradient-8" x1="269.14" y1="20.69" x2="234.79" y2="20.69" gradientTransform="matrix(1, 0, 0, 1, 0, 0)" gradientUnits="userSpaceOnUse"><stop offset=".03" stop-color="#038596"/><stop offset=".82" stop-color="#66d6d6"/></linearGradient><linearGradient id="linear-gradient-9" x1="271.07" y1="10.21" x2="233.26" y2="32.03" gradientTransform="matrix(1, 0, 0, 1, 0, 0)" gradientUnits="userSpaceOnUse"><stop offset=".2" stop-color="#008597"/><stop offset="1" stop-color="#48c0b9"/></linearGradient><linearGradient id="linear-gradient-10" y1="20.36" x2="191.15" y2="20.36" xlink:href="#linear-gradient-6"/><linearGradient id="linear-gradient-11" y1="5.3" y2="5.3" xlink:href="#linear-gradient-6"/></defs><g><polygon points="44.62 .43 2.5 7.94 30.06 40.66 44.62 .43" style="fill:url(#linear-gradient);"/><rect x="15.25" y="17.07" width="8.79" height="8.79" transform="translate(23.41 -7.39) rotate(49.9)" style="fill:#fff;"/><rect x="8.52" y="22.74" width="8.79" height="8.79" transform="translate(25.35 -.23) rotate(49.9)" style="fill:#1a5b6e;"/><rect x="1.8" y="28.4" width="8.79" height="8.79" transform="translate(27.29 6.93) rotate(49.9)" style="fill:#f07537;"/><rect x="2.86" y="16.01" width="8.79" height="8.79" transform="translate(18.19 1.71) rotate(49.9)" style="fill:#48c0b9;"/><rect x="14.19" y="29.46" width="8.79" height="8.79" transform="translate(32.51 -2.17) rotate(49.9)" style="fill:#008597;"/></g><g><g><path d="M70.26,.67l14.44,40.03h-11.09l-2.57-7.25h-14.5l-2.51,7.25h-10.82L57.66,.67h12.6Zm-10.65,24.03h8.37l-4.18-11.93-4.18,11.93Z"/><path d="M103.46,31.89c3.68,0,6.3-2.45,7.02-6.41l10.26,3.4c-2.45,7.53-8.25,12.49-17.23,12.49-11.26,0-19.24-8.64-19.24-20.69S92.25,0,103.52,0c8.98,0,14.77,4.96,17.23,12.49l-10.26,3.4c-.72-3.96-3.34-6.41-7.02-6.41-4.85,0-8.25,4.35-8.25,11.21s3.4,11.21,8.25,11.21Z" style="fill:#008597;"/><path d="M84.42,23.37c-1.27-14.31,7.83-23.37,19.09-23.37,8.98,0,14.77,4.96,17.23,12.49l-10.26,3.4c-.72-3.96-3.34-6.41-7.02-6.41-4.85,0-8.25,4.35-8.25,11.21l-10.79,2.68Z" style="fill:url(#linear-gradient-2);"/><path d="M143.01,31.89c3.68,0,6.3-2.45,7.02-6.41l10.26,3.4c-2.45,7.53-8.25,12.49-17.23,12.49-11.26,0-19.24-8.64-19.24-20.69S131.8,0,143.07,0c8.98,0,14.77,4.96,17.23,12.49l-10.26,3.4c-.72-3.96-3.34-6.41-7.02-6.41-4.85,0-8.25,4.35-8.25,11.21s3.4,11.21,8.25,11.21Z" style="fill:#008597;"/><path d="M203.38,26.76c3.4,3.85,7.92,5.63,11.99,5.63,3.35,0,5.58-1.23,5.58-3.51,0-2.57-2.84-2.9-8.98-4.13-5.85-1.17-12.26-3.34-12.26-11.49s7.08-13.27,15.95-13.27c7.02,0,12.54,2.73,15.72,6.19l-5.91,7.36c-2.62-2.9-6.13-4.57-10.09-4.57-2.95,0-4.96,1.12-4.96,3.18,0,2.29,2.45,2.67,7.3,3.68,6.25,1.28,14.05,3.01,14.05,11.93s-7.58,13.61-16.83,13.61c-6.53,0-14.16-2.57-17.51-6.69l5.97-7.92Z" style="fill:url(#linear-gradient-3);"/><path d="M211.97,24.76c-5.85-1.17-12.26-3.34-12.26-11.49s7.08-13.27,15.95-13.27c7.02,0,12.54,2.73,15.72,6.19l-5.91,7.36c-2.62-2.9-6.13-4.57-10.09-4.57-2.95,0-4.96,1.12-4.96,3.18,0,2.29,2.45,2.67,7.3,3.68l-5.74,8.92Z" style="fill:#008597;"/><path d="M70.26,.67l14.44,40.03h-11.09l-2.57-7.25L59.62,.67h10.65Zm-2.29,24.03" style="fill:#008597;"/><path d="M194.21,.67V9.92h-18.46v5.97h15.28v9.03h-15.28v6.52h18.46v9.26h-29.16V.67h29.16Z" style="fill:#008597;"/></g><polygon points="82.09 33.45 78.93 24.7 67.98 24.7 59.61 24.7 48.99 24.7 45.84 33.45 82.09 33.45" style="fill:url(#linear-gradient-4);"/><path d="M68.03,.67l-13.99,40.03h-10.82L57.66,.67h10.37Zm-8.42,24.03l4.18-11.93-4.18,11.93Z" style="fill:url(#linear-gradient-5);"/><polygon points="165.05 31.35 165.05 40.61 175.76 40.61 176.66 40.61 194.21 40.61 194.21 31.35 165.05 31.35" style="fill:url(#linear-gradient-6);"/><polygon points="175.75 15.39 165.05 15.39 165.05 .74 175.75 .67 175.75 15.39" style="fill:#008597;"/><path d="M124.03,23.37c-1.27-14.31,7.83-23.37,19.09-23.37,8.98,0,14.77,4.96,17.23,12.49l-10.26,3.4c-.72-3.96-3.34-6.41-7.02-6.41-4.85,0-8.25,4.35-8.25,11.21l-10.79,2.68Z" style="fill:url(#linear-gradient-7);"/><path d="M240.76,26.76c3.4,3.85,7.92,5.63,11.99,5.63,3.35,0,5.58-1.23,5.58-3.51,0-2.57-2.84-2.9-8.98-4.13-5.85-1.17-12.26-3.34-12.26-11.49s7.08-13.27,15.95-13.27c7.02,0,12.54,2.73,15.72,6.19l-5.91,7.36c-2.62-2.9-6.13-4.57-10.09-4.57-2.95,0-4.96,1.12-4.96,3.18,0,2.29,2.45,2.67,7.3,3.68,6.25,1.28,14.05,3.01,14.05,11.93s-7.58,13.61-16.83,13.61c-6.53,0-14.16-2.57-17.51-6.69l5.97-7.92Z" style="fill:url(#linear-gradient-8);"/><path d="M240.76,26.76c3.4,3.85,7.92,5.63,11.99,5.63,3.35,0,5.58-1.23,5.58-3.51,0-2.57-2.84-2.9-8.98-4.13-5.85-1.17-12.26-3.34-12.26-11.49s7.08-13.27,15.95-13.27c7.02,0,12.54,2.73,15.72,6.19l-5.91,7.36c-2.62-2.9-6.13-4.57-10.09-4.57-2.95,0-4.96,1.12-4.96,3.18,0,2.29,2.45,2.67,7.3,3.68,6.25,1.28,14.05,3.01,14.05,11.93s-7.58,13.61-16.83,13.61c-6.53,0-14.16-2.57-17.51-6.69l5.97-7.92Z" style="fill:url(#linear-gradient-9);"/><polygon points="165.05 15.73 165.05 24.99 175.76 24.99 176.66 24.99 191.15 24.99 191.15 15.73 165.05 15.73" style="fill:url(#linear-gradient-10);"/><path d="M249.34,24.76c-5.85-1.17-12.26-3.34-12.26-11.49s7.08-13.27,15.95-13.27c7.02,0,12.54,2.73,15.72,6.19l-5.91,7.36c-2.62-2.9-6.13-4.57-10.09-4.57-2.95,0-4.96,1.12-4.96,3.18,0,2.29,2.45,2.67,7.3,3.68l-5.74,8.92Z" style="fill:#008597;"/><polygon points="165.05 .67 165.05 9.92 175.76 9.92 176.66 9.92 194.21 9.92 194.21 .67 165.05 .67" style="fill:url(#linear-gradient-11);"/></g></svg>