<?xml version="1.0" encoding="iso-8859-1"?>
<!-- Generator: Adobe Illustrator 19.0.0, SVG Export Plug-In . SVG Version: 6.00 Build 0)  -->
<svg version="1.1" id="Layer_1" xmlns="http://www.w3.org/2000/svg" xmlns:xlink="http://www.w3.org/1999/xlink" x="0px" y="0px"
	 viewBox="0 0 512 512" style="enable-background:new 0 0 512 512;" xml:space="preserve">
<g>
	<g>
		<path d="M495.66,317.439c-9.024,0-16.34,7.316-16.34,16.34v26.465c0,4.9-3.987,8.887-8.887,8.887h-62.195v-73.633H103.763v73.633
			H41.568c-4.9,0-8.887-3.987-8.887-8.887v-26.465c0-9.024-7.316-16.34-16.34-16.34c-9.024,0-16.34,7.316-16.34,16.34v26.465
			c0,22.921,18.648,41.568,41.568,41.568c18.592,0,416.505,0,428.864,0c22.92,0,41.568-18.647,41.568-41.568v-26.465
			C512,324.755,504.684,317.439,495.66,317.439z"/>
	</g>
</g>
<g>
	<g>
		<path d="M355.067,114.298l-97.338,50.238c-1.082,0.559-2.376,0.561-3.46,0l-97.338-50.238
			c-24.291-12.534-53.171,5.119-53.171,32.392v116.128h304.474V146.69h0.002C408.237,119.357,379.304,101.789,355.067,114.298z"/>
	</g>
</g>
<g>
</g>
<g>
</g>
<g>
</g>
<g>
</g>
<g>
</g>
<g>
</g>
<g>
</g>
<g>
</g>
<g>
</g>
<g>
</g>
<g>
</g>
<g>
</g>
<g>
</g>
<g>
</g>
<g>
</g>
</svg>
