<svg xmlns="http://www.w3.org/2000/svg" viewBox="0 0 301.87 88.61"><defs><style>.cls-1{fill:#fff;}</style></defs><title>Jetstream2_logo_1C-white</title><g id="Layer_2" data-name="Layer 2"><g id="Layer_3" data-name="Layer 3"><path class="cls-1" d="M189.52,57h17.07l7-40a6.94,6.94,0,0,0-7-8.49H193.24L191.75,17h11.71a1.26,1.26,0,0,1,1.32,1.65l-1.15,6.85h-8.58a10.53,10.53,0,0,0-10,8.49L182.51,48.5A7,7,0,0,0,189.52,57Zm1.74-10.14,2-11.22a2,2,0,0,1,2-1.65h6.92L199.59,48.5h-6.93A1.37,1.37,0,0,1,191.26,46.85Z"/><path class="cls-1" d="M117.32,57h8.58l1.48-8.49h-6.93a1.38,1.38,0,0,1-1.4-1.65L124.33,17h8.58l1.48-8.49h-8.58L127.3,0h-8.5l-8.49,48.5A6.93,6.93,0,0,0,117.32,57Z"/><path class="cls-1" d="M139.28,57,146,18.64a2.11,2.11,0,0,1,2-1.65h6.92l1.49-8.49h-8.58a10.54,10.54,0,0,0-10,8.49l-7,40Z"/><path class="cls-1" d="M159.52,57h14.93l1.49-8.49H162.49a1.27,1.27,0,0,1-1.23-1.57L163,37h17.07l3.54-20a6.93,6.93,0,0,0-7-8.49H168A10.53,10.53,0,0,0,158,17L152.51,48.5A7,7,0,0,0,159.52,57Zm6.76-38.51A1.85,1.85,0,0,1,168,17h5.61a1.21,1.21,0,0,1,1.23,1.49l-1.73,10h-8.58Z"/><path class="cls-1" d="M36.52,57H51.45l1.49-8.49H39.49a1.28,1.28,0,0,1-1.24-1.57L40,37H57.06l3.55-20a6.93,6.93,0,0,0-7-8.49H45A10.53,10.53,0,0,0,35,17L29.51,48.5A7,7,0,0,0,36.52,57Zm6.77-38.51A1.83,1.83,0,0,1,45,17h5.61a1.22,1.22,0,0,1,1.24,1.49l-1.74,10H41.55Z"/><path class="cls-1" d="M22.35,58.26,32.49,0H24.14l-9.8,56a2.8,2.8,0,0,1-2.64,2.29H2.06L0,67.31H8.46C15,67.31,21.2,64.8,22.35,58.26Z"/><path class="cls-1" d="M220.42,56.79l7-40h6.93a1.33,1.33,0,0,1,1.32,1.65L229,56.79h8.5l7-40h6.93a1.33,1.33,0,0,1,1.32,1.65l-6.68,38.35h8.49l7-40a6.93,6.93,0,0,0-7-8.5H220.42l-1.48,8.5-7,40Z"/><path class="cls-1" d="M295.52,0l-14,0a10.54,10.54,0,0,0-10,8.5L270.09,17H278l1.49-8.44H292a1.31,1.31,0,0,1,1.32,1.64l-1.72,10.24c-6.76,0-24.93-.89-28.87,18.49l-2,11.91c-.63,4.21-.43,6.31,3.55,6.31h3.7C257.28,70.46,242.4,75.63,225.82,77q-5.2.42-10.38.42c-13.39,0-26.67-2-39.84-4.73C152.69,67.93,129.93,62.32,107,57.87c-3.44-.54-6.69-1.06-9.83-1.53a16,16,0,0,0,3.65-1.74A16.68,16.68,0,0,0,106.16,49a14,14,0,0,0,1.89-7.08,10.68,10.68,0,0,0-2.64-6.78L95.6,24.08a3.76,3.76,0,0,1-.17-4.53A5,5,0,0,1,99.64,17h10.8l1.49-8.5h-10.8a14.13,14.13,0,0,0-7.76,2.31A15.89,15.89,0,0,0,88,16.41a13.26,13.26,0,0,0-1.89,7.1,11,11,0,0,0,2.55,6.77l9.89,11a3.76,3.76,0,0,1,.17,4.53,5,5,0,0,1-4.21,2.64h-13l-1,6c-1.36-.06-2.71-.1-4.06-.1l1-5.86H70.48a1.37,1.37,0,0,1-1.4-1.65L74.36,17h8.58l1.48-8.5H75.84L77.33,0H68.84l-8.5,48.5a7,7,0,0,0,2.55,7.07C47.07,58.51,28.7,67.44,0,88.61,21.73,76.64,41.54,67,69.18,67a139.49,139.49,0,0,1,23,2c19.57,3.06,38.92,7.68,58.33,11.8,18.17,3.86,36.44,7.44,54.81,7.44a123.74,123.74,0,0,0,20.07-1.57c15-2.46,25.85-6.91,37.14-17.68a45.19,45.19,0,0,0,8.59-12h22l1.54-8.59h-19.8a58.78,58.78,0,0,0,1.94-6.57c-1.06,1.94-2.15,4.22-3.4,6.57h-4L271,38.69c.72-5.3,6.34-10.12,15.75-10.23l5.44-.08c4.71,0,6.94-2.3,7.63-8.26L301.7,8.48C302.53,3.78,300.22,0,295.52,0ZM270,57.09a43.38,43.38,0,0,1-8.15,11.24c-10.39,9.91-20.66,14.79-36.62,17.42a122.64,122.64,0,0,1-19.9,1.55c-18.22,0-36.23-3.51-54.61-7.41-4.61-1-9.3-2-13.84-3-14.55-3.18-29.6-6.48-44.52-8.8a138.76,138.76,0,0,0-23.22-2C47.07,66,29.88,72.15,13,80.57c12.33-8.44,22.74-14.38,32.1-18.4a82.6,82.6,0,0,1,19.1-5.81,71,71,0,0,1,12-1h0c1.35,0,2.69,0,4,.1,4.54.22,9.13.76,14,1.45,2.63.39,5.35.82,8.17,1.26l4.35.68c13.16,2.55,26.5,5.55,39.39,8.44,9.57,2.13,19.47,4.35,29.22,6.38,15.59,3.23,28.32,4.74,40.05,4.74,3.55,0,7.07-.14,10.46-.42,19.74-1.62,33.59-8.3,43.28-20.91.7-.91,1.38-1.84,2-2.81.26-.39.51-.79.76-1.19C271.38,54.41,270.75,55.75,270,57.09Z"/></g></g></svg>