<?xml version="1.0" encoding="UTF-8" standalone="no"?>
<svg
   xmlns:dc="http://purl.org/dc/elements/1.1/"
   xmlns:cc="http://creativecommons.org/ns#"
   xmlns:rdf="http://www.w3.org/1999/02/22-rdf-syntax-ns#"
   xmlns:svg="http://www.w3.org/2000/svg"
   xmlns="http://www.w3.org/2000/svg"
   xmlns:sodipodi="http://sodipodi.sourceforge.net/DTD/sodipodi-0.dtd"
   xmlns:inkscape="http://www.inkscape.org/namespaces/inkscape"
   width="277"
   height="99"
   viewBox="0 0 277 99"
   version="1.1"
   id="svg113"
   sodipodi:docname="jetstream-logo-white.svg"
   inkscape:version="0.92.4 (5da689c313, 2019-01-14)">
  <metadata
     id="metadata117">
    <rdf:RDF>
      <cc:Work
         rdf:about="">
        <dc:format>image/svg+xml</dc:format>
        <dc:type
           rdf:resource="http://purl.org/dc/dcmitype/StillImage" />
        <dc:title>jetstream-logo-white</dc:title>
      </cc:Work>
    </rdf:RDF>
  </metadata>
  <sodipodi:namedview
     pagecolor="#ffffff"
     bordercolor="#666666"
     borderopacity="1"
     objecttolerance="10"
     gridtolerance="10"
     guidetolerance="10"
     inkscape:pageopacity="0"
     inkscape:pageshadow="2"
     inkscape:window-width="3840"
     inkscape:window-height="1535"
     id="namedview115"
     showgrid="false"
     inkscape:zoom="10"
     inkscape:cx="189.45819"
     inkscape:cy="45.176378"
     inkscape:window-x="0"
     inkscape:window-y="28"
     inkscape:window-maximized="0"
     inkscape:current-layer="svg113" />
  <!-- Generator: Sketch 56.3 (81716) - https://sketch.com -->
  <title
     id="title82">jetstream-logo-white</title>
  <desc
     id="desc84">Created with Sketch.</desc>
  <defs
     id="defs91">
    <linearGradient
       x1="-0.097134925"
       y1="88.260643"
       x2="100.87951"
       y2="88.023628"
       id="linearGradient-1"
       gradientTransform="matrix(2.7140363,0,0,0.36845491,0,18)"
       gradientUnits="userSpaceOnUse">
      <stop
         stop-color="#4AAFC8"
         offset="25%"
         id="stop86" />
      <stop
         stop-color="#97D5CC"
         offset="75%"
         id="stop88" />
    </linearGradient>
  </defs>
  <path
     d="M 0,68.7 C 65.4,51.5 49,14 127.5,44.9 c 96.7,38 146,-13 146,-13 -5.7,5 -20.2,20 -45.4,30.1 -7.4,2.9 -28.5,17.5 -101.7,-6.6 C 51.5,30.6 60.8,61.2 0,68.7 Z"
     id="Path"
     style="fill:url(#linearGradient-1);fill-rule:nonzero;stroke:none;stroke-width:1"
     inkscape:connector-curvature="0" />
  <path
     d="m 131.9,58 c 0,2.3 -0.6,4.6 -1.8,6.8 -1.3,2.2 -3.1,4 -5.1,5.4 -2.4,1.5 -4.9,2.3 -7.4,2.3 h -12.5 l 1.4,-8.1 H 119 c 2.4,0 3.7,-2 4,-2.5 0.4,-0.6 1.3,-2.6 -0.2,-4.3 l -9.4,-10.7 c -1.5,-1.8 -2.4,-4 -2.4,-6.5 -0.1,-2.3 0.6,-4.6 1.8,-6.8 1.3,-2.2 3,-4 5.1,-5.4 2.4,-1.5 4.8,-2.2 7.4,-2.2 h 10.3 l -1.4,8.1 h -10.3 c -2.4,0 -3.7,1.9 -4,2.4 -0.4,0.6 -1.3,2.6 0.2,4.3 l 9.4,10.6 c 1.5,2 2.3,4.2 2.4,6.6 z"
     id="path94"
     inkscape:connector-curvature="0"
     style="fill:#ffffff;fill-rule:nonzero;stroke:none;stroke-width:1" />
  <path
     d="m 147.5,34.2 -5,28.5 c -0.2,0.9 0.5,1.6 1.3,1.6 h 6.6 l -1.4,8.1 h -8.2 c -4.5,0 -7.5,-3.6 -6.7,-8.1 L 142.2,18 h 8.1 l -1.4,8.1 h 8.2 l -1.4,8.1 c 0,0 -8.2,0 -8.2,0 z"
     id="path96"
     inkscape:connector-curvature="0"
     style="fill:#ffffff;fill-rule:nonzero;stroke:none;stroke-width:1" />
  <path
     d="M 176.6,34.2 H 170 c -0.9,0 -1.7,0.7 -1.9,1.6 l -6.4,36.6 h -8.1 l 6.7,-38.2 c 0.8,-4.5 5,-8.1 9.5,-8.1 h 8.2 z"
     id="path98"
     inkscape:connector-curvature="0"
     style="fill:#ffffff;fill-rule:nonzero;stroke:none;stroke-width:1" />
  <path
     d="m 204.1,34.2 -3.4,19.1 h -16.3 l -1.7,9.5 c -0.2,0.8 0.4,1.5 1.2,1.5 h 12.8 l -1.4,8.1 H 181 c -4.5,0 -7.5,-3.7 -6.7,-8.1 l 5.3,-30.1 c 0.8,-4.5 5,-8.1 9.5,-8.1 h 8.2 c 4.6,0 7.6,3.6 6.8,8.1 z m -8.4,1.5 c 0.2,-0.8 -0.4,-1.4 -1.2,-1.4 h -5.4 c -0.8,0 -1.5,0.6 -1.7,1.4 l -1.7,9.5 h 8.2 z"
     id="Shape"
     inkscape:connector-curvature="0"
     style="fill:#ffffff;fill-rule:nonzero;stroke:none;stroke-width:1" />
  <path
     d="m 231.8,34.2 -6.7,38.2 h -16.3 c -4.5,0 -7.5,-3.7 -6.7,-8.1 l 2.4,-13.9 c 0.8,-4.5 5,-8.1 9.5,-8.1 h 8.2 l 1.1,-6.5 c 0.2,-0.9 -0.4,-1.6 -1.3,-1.6 h -11.2 l 1.4,-8.1 H 225 c 4.6,0 7.5,3.6 6.8,8.1 z m -11,16.3 h -6.6 c -0.9,0 -1.7,0.6 -1.9,1.6 l -1.9,10.7 c -0.2,0.9 0.5,1.6 1.3,1.6 h 6.6 z"
     id="path101"
     inkscape:connector-curvature="0"
     style="fill:#ffffff;fill-rule:nonzero;stroke:none;stroke-width:1" />
  <path
     d="m 269.8,26.1 c 4.5,0 7.5,3.6 6.7,8.1 l -6.7,38.2 h -8.1 l 6.4,-36.6 c 0.2,-0.9 -0.4,-1.6 -1.3,-1.6 h -6.6 l -6.7,38.2 h -8.1 l 6.4,-36.6 c 0.2,-0.9 -0.4,-1.6 -1.3,-1.6 h -6.6 l -6.7,38.2 h -8.1 l 6.7,-38.2 1.4,-8.1 c 0,0 32.6,0 32.6,0 z"
     id="path103"
     inkscape:connector-curvature="0"
     style="fill:#ffffff;fill-rule:nonzero;stroke:none;stroke-width:1" />
  <path
     d="M 87.6,34.2 84.2,53.3 H 67.9 l -1.7,9.5 c -0.2,0.8 0.4,1.5 1.2,1.5 h 12.8 l -1.4,8.1 H 64.6 c -4.5,0 -7.5,-3.7 -6.7,-8.1 l 5.3,-30.1 c 0.8,-4.5 5,-8.1 9.5,-8.1 h 8.2 c 4.5,0 7.5,3.6 6.7,8.1 z m -8.4,1.5 C 79.4,34.9 78.8,34.3 78,34.3 h -5.4 c -0.8,0 -1.5,0.6 -1.7,1.4 l -1.7,9.5 h 8.4 z"
     id="path105"
     inkscape:connector-curvature="0"
     style="fill:#ffffff;fill-rule:nonzero;stroke:none;stroke-width:1" />
  <path
     d="m 99.7,34.2 -5,28.5 c -0.2,0.9 0.5,1.6 1.3,1.6 h 6.6 l -1.4,8.1 H 93 c -4.5,0 -7.5,-3.6 -6.7,-8.1 L 94.4,18 h 8.1 l -1.4,8.1 h 8.2 l -1.4,8.1 c 0,0 -8.2,0 -8.2,0 z"
     id="path107"
     inkscape:connector-curvature="0"
     style="fill:#ffffff;fill-rule:nonzero;stroke:none;stroke-width:1" />
  <path
     d="M 61.2,18 49,87.7 C 47.6,95.5 40.2,98.5 32.4,98.5 H 22.3 l 2.5,-10.8 h 11.5 c 1.5,0 2.9,-1.2 3.2,-2.7 L 51.2,18 Z"
     id="path109"
     inkscape:connector-curvature="0"
     style="fill:#ffffff;fill-rule:nonzero;stroke:none;stroke-width:1" />
</svg>
