<?xml version="1.0" encoding="UTF-8" standalone="no"?>
<!-- Created with Inkscape (http://www.inkscape.org/) -->

<svg
   width="400mm"
   height="400mm"
   viewBox="0 0 400 400"
   version="1.1"
   id="svg5"
   inkscape:export-filename="/home/alecbcs/icon-with-background.png"
   inkscape:export-xdpi="313.7869"
   inkscape:export-ydpi="313.7869"
   inkscape:version="1.1.1 (3bf5ae0d25, 2021-09-20)"
   sodipodi:docname="exophere-icon-only-no-background.svg"
   xmlns:inkscape="http://www.inkscape.org/namespaces/inkscape"
   xmlns:sodipodi="http://sodipodi.sourceforge.net/DTD/sodipodi-0.dtd"
   xmlns:xlink="http://www.w3.org/1999/xlink"
   xmlns="http://www.w3.org/2000/svg"
   xmlns:svg="http://www.w3.org/2000/svg">
  <sodipodi:namedview
     id="namedview7"
     pagecolor="#ffffff"
     bordercolor="#666666"
     borderopacity="1.0"
     inkscape:pageshadow="2"
     inkscape:pageopacity="0.0"
     inkscape:pagecheckerboard="0"
     inkscape:document-units="mm"
     showgrid="false"
     inkscape:zoom="0.24882163"
     inkscape:cx="827.9023"
     inkscape:cy="988.66003"
     inkscape:window-width="1920"
     inkscape:window-height="1007"
     inkscape:window-x="0"
     inkscape:window-y="34"
     inkscape:window-maximized="1"
     inkscape:current-layer="g855"
     width="500mm" />
  <defs
     id="defs2">
    <linearGradient
       data-v-fde0c5aa=""
       gradientTransform="rotate(25)"
       id="984e427e-1566-43c4-a7fc-517f39b90fe4"
       x1="0"
       y1="0"
       x2="1"
       y2="0">
      <stop
         data-v-fde0c5aa=""
         offset="0%"
         stop-color="#0076DD"
         stop-opacity="1"
         id="stop833" />
      <stop
         data-v-fde0c5aa=""
         offset="100%"
         stop-color="#00CDE9"
         stop-opacity="1"
         id="stop835" />
    </linearGradient>
    <linearGradient
       inkscape:collect="always"
       xlink:href="#984e427e-1566-43c4-a7fc-517f39b90fe4"
       id="linearGradient857"
       x1="15.278995"
       y1="15.116"
       x2="86.045998"
       y2="15.116"
       gradientUnits="userSpaceOnUse"
       gradientTransform="translate(-178.43086,-122.71599)" />
    <linearGradient
       inkscape:collect="always"
       xlink:href="#984e427e-1566-43c4-a7fc-517f39b90fe4"
       id="linearGradient859"
       x1="15.278995"
       y1="15.116"
       x2="86.045998"
       y2="15.116"
       gradientUnits="userSpaceOnUse" />
    <linearGradient
       inkscape:collect="always"
       xlink:href="#984e427e-1566-43c4-a7fc-517f39b90fe4"
       id="linearGradient1057"
       gradientTransform="matrix(1.6628981,0,0,0.89963717,-45.302905,-168.48217)"
       x1="5.476006"
       y1="18.581667"
       x2="69.876045"
       y2="18.581667"
       gradientUnits="userSpaceOnUse" />
    <linearGradient
       inkscape:collect="always"
       xlink:href="#984e427e-1566-43c4-a7fc-517f39b90fe4"
       id="linearGradient1059"
       gradientTransform="matrix(1.7884972,0,0,0.83645918,-45.302905,-168.48217)"
       x1="3.4195304"
       y1="65.036079"
       x2="63.230618"
       y2="65.036079"
       gradientUnits="userSpaceOnUse" />
    <linearGradient
       inkscape:collect="always"
       xlink:href="#984e427e-1566-43c4-a7fc-517f39b90fe4"
       id="linearGradient1061"
       gradientTransform="matrix(0.85034499,0,0,1.7592917,-45.302905,-168.48217)"
       x1="41.663895"
       y1="3.1885252"
       x2="104.80988"
       y2="3.1885252"
       gradientUnits="userSpaceOnUse" />
    <linearGradient
       inkscape:collect="always"
       xlink:href="#984e427e-1566-43c4-a7fc-517f39b90fe4"
       id="linearGradient1063"
       gradientTransform="scale(0.99543797,1.0045829)"
       x1="5.0231256"
       y1="4.5653639"
       x2="95.436218"
       y2="4.5653639"
       gradientUnits="userSpaceOnUse" />
  </defs>
  <g
     inkscape:label="Layer 1"
     inkscape:groupmode="layer"
     id="layer1">
    <g
       id="g855"
       transform="matrix(4.1253206,0,0,4.0042958,61.418451,-114.89511)">
      <g
         data-v-fde0c5aa=""
         id="ecf0c6f4-1fb9-44ab-9823-1297099be5b7"
         stroke="none"
         fill="url(#984e427e-1566-43c4-a7fc-517f39b90fe4)"
         transform="matrix(1.3565534,0,0,1.3565534,206.97523,176.77131)"
         style="fill:url(#linearGradient859)">
        <path
           d="m -101.60686,-51.475986 c 0.83777,-0.962338 2.313876,0.210254 1.566,1.244 -0.85362,1.07385 -1.76812,2.097865 -2.739,3.067 -0.39059,0.390939 -1.02451,0.390042 -1.414,-0.002 -0.39038,-0.390823 -0.38949,-1.024282 0.002,-1.414 0.91667,-0.914441 1.77977,-1.88105 2.585,-2.895 z m 4.480002,-7.467 c 0.548407,-1.176832 2.319071,-0.408321 1.834,0.796 -0.54669,1.257573 -1.165382,2.482603 -1.853,3.669 -0.277564,0.477309 -0.889204,0.639726 -1.367004,0.363 -0.477782,-0.277205 -0.640312,-0.889282 -0.363002,-1.367 0.649192,-1.11901 1.233162,-2.274603 1.749006,-3.461 z m -22.035002,18.992 c 1.25173,-0.333257 2.48284,-0.739621 3.687,-1.217 1.23947,-0.489454 1.97547,1.370546 0.736,1.86 -1.27609,0.505746 -2.58065,0.936481 -3.907,1.29 -0.53397,0.141795 -1.08195,-0.175366 -1.225,-0.709 -0.14234,-0.5338 0.17514,-1.081888 0.709,-1.224 z m -8.607,1.119 c 1.2848,5.07e-4 2.56857,-0.07261 3.845,-0.219 0.54933,-0.06617 1.04696,0.328966 1.107,0.879 0.0638,0.548669 -0.33014,1.044837 -0.879,1.107 -1.35215,0.154733 -2.71203,0.232193 -4.073,0.232 h -0.031 c -0.553,0 -0.984,-0.447 -0.984,-1 0,-0.553 0.462,-0.999 1.015,-0.999 z m 30.315998,-49.652 c -0.47816,0.276469 -1.08995,0.111981 -1.365,-0.367 -0.646932,-1.121873 -1.357768,-2.205658 -2.128998,-3.246 -0.72686,-1.059428 0.80166,-2.193678 1.604996,-1.191 0.817692,1.101866 1.570952,2.250118 2.256006,3.439 0.277065,0.478086 0.112455,1.090319 -0.367004,1.365 z m -57.223998,-4.141 c -0.83693,-10e-4 -1.30241,-0.968335 -0.781,-1.623 0.85483,-1.073065 1.77103,-2.095774 2.744,-3.063 0.94528,-0.97275 2.38808,0.478234 1.41,1.418 -0.91802,0.913591 -1.78278,1.879183 -2.59,2.892 -0.18991,0.238296 -0.47829,0.376774 -0.783,0.376 z m -3.378,36.731 c 0.47828,-0.276129 1.08985,-0.112268 1.366,0.366 0.64817,1.120847 1.36105,2.20301 2.135,3.241 0.79667,1.069333 -0.80733,2.264333 -1.604,1.195 -0.82005,-1.101232 -1.57597,-2.248801 -2.264,-3.437 -0.27528,-0.478319 -0.11103,-1.08922 0.367,-1.365 z m 46.946,12.615 c 1.1217,-0.647251 2.20486,-1.359116 3.244,-2.132 1.06625,-0.770465 2.23811,0.806087 1.193,1.605 -1.10156,0.818553 -2.24947,1.572809 -3.438,2.259 -1.14322,0.624336 -2.11187,-1.055041 -0.999,-1.732 z m -20.444,-62.108004 c -1.32499,0.14891 -1.54899,-1.83909 -0.224,-1.988 1.33114,-0.14915 2.66953,-0.22427 4.009,-0.225 h 0.093 c 0.553,0 0.954,0.447 0.954,1 0,0.553 -0.494,1 -1.047,1 -1.265,0 -2.537,0.072 -3.785,0.213 z m -16.073,6.332004 c -1.07133,0.794666 -2.26333,-0.812334 -1.192,-1.607004 1.10299,-0.81695 2.25224,-1.56954 3.442,-2.254 1.14735,-0.63256 2.12049,1.06163 0.996,1.734 -1.122,0.646 -2.2058,1.356181 -3.246,2.127004 z m -10.733,9.044 c 0.67195,-1.150842 2.39795,-0.142842 1.726,1.008 -0.65137,1.117603 -1.23703,2.272228 -1.754,3.458 -0.53203,1.222587 -2.36603,0.424587 -1.834,-0.798 0.54897,-1.257761 1.17069,-2.482499 1.862,-3.668 z m 39.577,-14.403004 c -0.087,0 -0.175,-0.011 -0.262,-0.034 -1.24937,-0.33801 -2.51757,-0.60214 -3.798,-0.791 -0.54612,-0.0808 -0.92347,-0.58883 -0.843,-1.135 0.0782,-0.54776 0.58791,-0.92677 1.135,-0.844 1.351,0.199 2.705,0.481 4.027,0.838 1.12043,0.30878 0.90317,1.95794 -0.259,1.966 z m -43.37,31.073004 c 0.55228,0 1,0.447715 1,1 l -0.001,0.125 c 0,1.292 0.075,2.596 0.223,3.875 0.11452,1.292816 -1.80201,1.51477 -1.986,0.23 -0.1579,-1.370659 -0.2367,-2.749276 -0.236,-4.129 l 0.001,-0.102 c -0.001,-0.552191 0.44681,-1.000109 0.999,-0.999 z m 51.646,-27.617004 c -0.17643,-2e-5 -0.34968,-0.047 -0.502,-0.136 -1.11864,-0.65075 -2.27427,-1.23574 -3.461,-1.752 -1.14813,-0.56041 -0.39465,-2.29209 0.798,-1.834 1.25731,0.54805 2.48201,1.16808 3.668,1.857 0.88909,0.5113 0.52261,1.87012 -0.503,1.865 z m -29.501,-2.328 c -1.2011,0.39946 -1.88408,-1.33549 -0.733,-1.862 1.27754,-0.50297 2.58345,-0.9307 3.911,-1.281 0.53366,-0.13793 1.07884,0.17972 1.222,0.712 0.14087,0.53407 -0.17792,1.0812 -0.712,1.222 -1.25183,0.33083 -2.48326,0.73452 -3.688,1.209 z m 45.622002,31.070004 c 0,-1.274 -0.072,-2.558 -0.215,-3.814 -0.06322,-0.548651 0.331172,-1.04433 0.88,-1.106 0.572,-0.076 1.045,0.332 1.106,0.88 0.151,1.332 0.229,2.691 0.229,4.041 v 0.062 c 0,0.553 -0.447,0.969 -1,0.969 -0.553,0 -1,-0.479 -1,-1.032 z m -42.051002,32.249 c 1.25039,0.334792 2.5192,0.596567 3.8,0.784 1.36731,0.155821 1.06573,2.219889 -0.289,1.978 -1.35768,-0.198472 -2.70263,-0.475943 -4.028,-0.831 -1.33964,-0.313899 -0.80027,-2.328452 0.517,-1.931 z m -24.813,-24.319 c 0.53326,-0.140639 1.08003,0.175629 1.224,0.708 0.33518,1.250858 0.74253,2.481252 1.22,3.685 0.40236,1.199858 -1.33027,1.887321 -1.86,0.738 -0.50552,-1.276377 -0.9369,-2.580882 -1.292,-3.907 -0.14241,-0.533496 0.17454,-1.081444 0.708,-1.224 z m 66.974002,-15.798 c -0.534004,0.140978 -1.081289,-0.17719 -1.223,-0.711 -0.331856,-1.251226 -0.736546,-2.481991 -1.212,-3.686 -0.490386,-1.239878 1.369614,-1.975878 1.86,-0.736 0.50475,1.277067 0.934154,2.582643 1.286,3.91 0.14157,0.534084 -0.176827,1.081764 -0.711,1.223 z m -65.718002,-0.887 c -0.33772,1.249223 -0.6025,2.51703 -0.793,3.797 -0.17188,1.349937 -2.20484,1.048796 -1.978,-0.293 0.2,-1.351 0.483,-2.705 0.842,-4.027 0.14282,-0.534401 0.69375,-0.850049 1.227,-0.703 0.53276,0.144239 0.84727,0.693524 0.702,1.226 z m 15.515,37.664 c 1.12,0.64808 2.2766,1.230723 3.464,1.745 0.507,0.22 0.739,0.809 0.521,1.315 -0.22002,0.506213 -0.80799,0.739165 -1.315,0.521 -1.25838,-0.5456 -2.4841,-1.163635 -3.671,-1.851 -1.15333,-0.667333 -0.15233,-2.397333 1.001,-1.73 z m -6.904,-5.31 c 0.91,0.911 1.885,1.78 2.897,2.583 0.74797,0.587156 0.32888,1.788488 -0.622,1.783 -0.22541,7.39e-4 -0.44425,-0.07586 -0.62,-0.217 -1.07459,-0.852073 -2.09928,-1.765248 -3.069,-2.735 -0.94267,-0.942666 0.47133,-2.356666 1.414,-1.414 z m 55.852002,-14.902 c 0.335,-1.242 0.6,-2.52 0.787,-3.799 0.07451,-0.549956 0.586873,-0.930953 1.135,-0.844 0.546529,0.08029 0.924439,0.588494 0.844,1.135 -0.199098,1.357472 -0.477575,2.702111 -0.834,4.027 -0.346101,1.287824 -2.278101,0.768824 -1.932,-0.519 z m -8.584002,-32.253 c -0.91383,-0.917508 -1.87977,-1.781606 -2.893,-2.588 -1.07804,-0.826495 0.19949,-2.430074 1.246,-1.564 1.07279,0.85411 2.0958,1.76894 3.064,2.74 0.8683,0.943816 -0.47626,2.283633 -1.417,1.412 z"
           id="path840"
           style="fill:url(#linearGradient857)"
           sodipodi:nodetypes="ccccccccccccccccccccccssscccccccccccscccccccccccccccsssccccccccccccccccccccccccccccccccccccccscccsssscccccccccccccccscccccccsccccsccccscccccccccccc"
           inkscape:export-filename="/home/alecbcs/logo-512px.png"
           inkscape:export-xdpi="40.164722"
           inkscape:export-ydpi="40.164722" />
      </g>
      <g
         id="g1055"
         transform="matrix(0.73977385,0,0,0.75268761,40.113758,120.90832)"
         inkscape:export-filename="/home/alecbcs/logo-512px.png"
         inkscape:export-xdpi="40.164722"
         inkscape:export-ydpi="40.164722">
        <g
           data-v-fde0c5aa=""
           id="178f47e0-6b1f-4606-87a3-fdb6c24c1003"
           stroke="none"
           fill="url(#acf4dabc-497e-426d-820d-94d64ddeba63)"
           transform="matrix(0.85203353,0,0,0.85203353,-22.244245,35.509532)"
           style="fill:url(#linearGradient1063)">
          <path
             clip-rule="evenodd"
             d="m -10.112727,-147.47767 c 6.1400259,2.02059 12.2409126,4.16593 18.4286403,6.02383 6.1852817,1.85424 12.3717867,4.25154 18.7124037,4.90346 7.897639,0.81337 15.35985,-4.94871 17.869678,-12.55158 1.298946,-3.94086 3.297512,-2.72753 5.540701,-1.30139 8.977648,5.71071 14.634544,14.14163 17.645848,23.99136 1.911726,6.25866 2.179587,13.06406 2.778912,19.66153 0.331464,3.63754 -2.091522,5.92476 -5.232476,7.558841 -17.84277,9.287091 -34.173772,5.79021 -50.230797,-4.952381 -8.7489263,-5.8526 -18.0861694,-11.08997 -27.759769,-15.18862 -4.930367,-2.08907 -11.185366,-1.3124 -16.843485,-1.34787 -6.272123,-0.0367 -8.472503,-2.32147 -6.003038,-7.90498 5.078364,-11.48869 10.524886,-17.82075 25.093382,-18.8922 z"
             id="path1037"
             style="fill:url(#linearGradient1057);stroke-width:1.22311" />
          <path
             clip-rule="evenodd"
             d="m -39.180003,-102.09284 c -0.06972,-9.67482 0.2434,-9.38128 7.11974,-10.99823 14.115945,-3.32075 25.5801806,2.14901 36.6395666,9.78368 8.1911874,5.651995 16.1035034,11.721082 26.0009324,14.455962 10.949306,3.028428 21.592834,2.755673 32.218015,-1.254913 1.503205,-0.566302 3.317082,-0.309448 4.986631,-0.432982 -0.253185,1.667102 -0.20793,3.45407 -0.807255,4.984184 -6.565669,16.7701 -25.986255,20.09085 -42.076303,13.03716 -4.765248,-2.089077 -9.56352,-4.266218 -14.556266,-5.645889 -9.85951293,-2.725095 -19.4707333,1.698904 -23.547368,10.954197 -1.822438,4.134121 -3.45407,3.726825 -6.440912,1.523999 -13.147239,-9.704176 -18.050699,-23.476426 -19.536781,-36.407168 z"
             id="path1039"
             style="fill:url(#linearGradient1059);stroke-width:1.22311" />
          <path
             clip-rule="evenodd"
             d="m 43.821655,-58.45096 c -6.763813,2.1062 -12.294729,4.192831 -18.002997,5.521131 -9.673599,2.250528 -19.17474,1.174188 -28.2000893,-3.035766 -5.6654586,-2.64437 -6.3088159,-8.611937 -1.5949391,-12.649431 4.62214325,-3.96044 10.0698877,-4.25521 15.2448784,-2.323915 9.583089,3.578827 18.558291,8.879798 29.106416,9.580642 0.717967,0.04648 1.371109,1.113032 3.446731,2.907339 z m -53.6958754,-98.55719 c 5.1297352,-1.65976 10.15428252,-3.91518 15.4124445,-4.84842 8.7489269,-1.55335 17.5651239,-1.59371 26.1122359,1.78819 3.869929,1.53012 6.763814,3.90418 6.555885,8.16183 -0.211599,4.27966 -3.542135,6.97785 -7.358247,7.47199 -4.242978,0.54918 -8.895699,0.45989 -12.967442,-0.72531 -8.576467,-2.49759 -16.88996534,-5.88927 -25.3062045,-8.92871 -0.7167442,-0.26052 -1.3943486,-0.63235 -2.0915229,-0.95158 -0.1174189,-0.65681 -0.238507,-1.3124 -0.357149,-1.96799 z"
             id="path1041"
             style="fill:url(#linearGradient1061);stroke-width:1.22311" />
        </g>
      </g>
    </g>
  </g>
</svg>
